<?xml version="1.0" encoding="iso-8859-1"?>
2
<!-- Generator: Adobe Illustrator 19.0.0, SVG Export Plug-In . SVG Version: 6.00 Build 0)  -->
3
<svg version="1.1" id="Layer_1" xmlns="http://www.w3.org/2000/svg" xmlns:xlink="http://www.w3.org/1999/xlink" x="0px" y="0px"
4
	 viewBox="0 0 382 382" style="enable-background:new 0 0 382 382;" xml:space="preserve">
5
<path style="fill:#0077B7;" d="M347.445,0H34.555C15.471,0,0,15.471,0,34.555v312.889C0,366.529,15.471,382,34.555,382h312.889
6
	C366.529,382,382,366.529,382,347.444V34.555C382,15.471,366.529,0,347.445,0z M118.207,329.844c0,5.554-4.502,10.056-10.056,10.056
7
	H65.345c-5.554,0-10.056-4.502-10.056-10.056V150.403c0-5.554,4.502-10.056,10.056-10.056h42.806
8
	c5.554,0,10.056,4.502,10.056,10.056V329.844z M86.748,123.432c-22.459,0-40.666-18.207-40.666-40.666S64.289,42.1,86.748,42.1
9
	s40.666,18.207,40.666,40.666S109.208,123.432,86.748,123.432z M341.91,330.654c0,5.106-4.14,9.246-9.246,9.246H286.73
10
	c-5.106,0-9.246-4.14-9.246-9.246v-84.168c0-12.556,3.683-55.021-32.813-55.021c-28.309,0-34.051,29.066-35.204,42.11v97.079
11
	c0,5.106-4.139,9.246-9.246,9.246h-44.426c-5.106,0-9.246-4.14-9.246-9.246V149.593c0-5.106,4.14-9.246,9.246-9.246h44.426
12
	c5.106,0,9.246,4.14,9.246,9.246v15.655c10.497-15.753,26.097-27.912,59.312-27.912c73.552,0,73.131,68.716,73.131,106.472
13
	L341.91,330.654L341.91,330.654z"/>
14
<g>
15
</g>
16
<g>
17
</g>
18
<g>
19
</g>
20
<g>
21
</g>
22
<g>
23
</g>
24
<g>
25
</g>
26
<g>
27
</g>
28
<g>
29
</g>
30
<g>
31
</g>
32
<g>
33
</g>
34
<g>
35
</g>
36
<g>
37
</g>
38
<g>
39
</g>
40
<g>
41
</g>
42
<g>
43
</g>
44
</svg>
